#!OML:ASF X:\für Bonn\!DataBase\2005_08_11_Bastian_Final\c3d\Bastian.ASF
:FULLY-SPECIFIED
:DEGREES
123
root -6.56404 17.1039 2.62869 536.124 38.0057 -172.987
lowerback 27.9195 0.227987 -5.63607
upperback 16.4482 2.45288 0.972139
thorax 3.0363 2.1375 3.74945
lowerneck -13.3519 -14.0113 -22.8131
upperneck -10.2314 -14.8182 38.7419
head 5.26344 -5.82017 15.7594
rclavicle -1.51076e-014 4.53229e-014
rhumerus -26.7854 10.7563 -89.8359
rradius 49.9233
rwrist 7.78374
rhand -17.9515 6.25172
rfingers 7.12502
rthumb 8.3171 -23.5646
lclavicle -1.51076e-014 4.53229e-014
lhumerus -20.2519 -40.3817 96.6004
lradius 65.5758
lwrist 8.58757
lhand -15.9555 -6.14216
lfingers 7.12502
lthumb 10.243 23.5884
rfemur -17.5886 4.513 24.3084
rtibia 76.376
rfoot -7.44521 -10.4256
rtoes -11.4343
lfemur -12.7606 -1.9103 -13.3786
ltibia 42.6222
lfoot -14.0062 -4.24875
ltoes -12.4197
124
root -6.54542 17.0987 2.55601 535.97 38.411 -173.035
lowerback 27.9613 0.171326 -5.56236
upperback 16.5256 2.40827 0.973976
thorax 3.11299 2.12166 3.72327
lowerneck -13.4751 -13.9387 -22.7116
upperneck -10.13 -14.7209 38.6343
head 5.25365 -5.76374 15.711
rclavicle -1.66979e-014 -3.18055e-015
rhumerus -26.6186 10.3897 -89.6606
rradius 49.1043
rwrist 7.19201
rhand -17.9227 6.0906
rfingers 7.12502
rthumb 8.34495 -23.7246
lclavicle -1.66979e-014 -3.18055e-015
lhumerus -19.9608 -40.2375 96.3994
lradius 65.489
lwrist 8.64662
lhand -15.9648 -6.12854
lfingers 7.12502
lthumb 10.2341 23.6025
rfemur -18.3802 4.74366 24.3511
rtibia 76.3197
rfoot -8.30921 -10.5033
rtoes -11.6093
lfemur -12.29 -1.68696 -13.5304
ltibia 42.7089
lfoot -14.3919 -4.11482
ltoes -12.3287
125
root -6.52675 17.0932 2.48265 535.762 38.8069 -173.113
lowerback 28.0181 0.108557 -5.47665
upperback 16.6128 2.36277 0.963393
thorax 3.19519 2.10884 3.67689
lowerneck -13.5327 -13.8744 -22.6807
upperneck -10.062 -14.6353 38.5831
head 5.24378 -5.7196 15.7029
rclavicle -2.78299e-015 2.54444e-014
rhumerus -26.4491 10.0506 -89.4859
rradius 48.2766
rwrist 6.51119
rhand -17.8648 5.95372
rfingers 7.12502
rthumb 8.40083 -23.8592
lclavicle -2.78299e-015 2.54444e-014
lhumerus -19.6868 -40.1063 96.2305
lradius 65.4029
lwrist 8.68686
lhand -16.0371 -6.19307
lfingers 7.12502
lthumb 10.1644 23.5414
rfemur -19.1116 4.91418 24.3549
rtibia 76.1848
rfoot -9.07656 -10.5723
rtoes -12.0617
lfemur -11.7662 -1.511 -13.7116
ltibia 42.7716
lfoot -14.7736 -3.95968
ltoes -11.9875
126
root -6.50545 17.0897 2.4101 535.59 39.1888 -173.187
lowerback 28.044 0.0479404 -5.41832
upperback 16.6758 2.30501 0.966685
thorax 3.26336 2.08383 3.66404
lowerneck -13.5289 -13.7872 -22.6699
upperneck -10.0108 -14.521 38.5343
head 5.21192 -5.66884 15.7098
rclavicle -4.09496e-014 2.38542e-014
rhumerus -26.3346 9.74308 -89.3053
rradius 47.4678
rwrist 5.8998
rhand -17.7967 5.80774
rfingers 7.12502
rthumb 8.46654 -24.0025
lclavicle -4.09496e-014 2.38542e-014
lhumerus -19.4317 -39.9438 96.0797
lradius 65.3066
lwrist 8.70615
lhand -16.0681 -6.25584
lfingers 7.12502
lthumb 10.1345 23.4801
rfemur -19.8657 5.05304 24.3653
rtibia 75.979
rfoot -9.75345 -10.6464
rtoes -12.607
lfemur -11.2668 -1.29314 -13.8739
ltibia 42.8021
lfoot -15.1368 -3.82845
ltoes -11.8569
127
root -6.48117 17.0876 2.33617 535.406 39.5668 -173.24
lowerback 28.0479 -0.0167063 -5.37054
upperback 16.7483 2.24208 1.00367
thorax 3.35228 2.05292 3.69676
lowerneck -13.5591 -13.7057 -22.7163
upperneck -9.89858 -14.4229 38.448
head 5.20625 -5.62229 15.7067
rclavicle 3.26007e-014 -2.98177e-014
rhumerus -26.2451 9.48019 -89.0801
rradius 46.6353
rwrist 5.30175
rhand -17.6353 5.73301
rfingers 7.12502
rthumb 8.62233 -24.0709
lclavicle 3.26007e-014 -2.98177e-014
lhumerus -19.1703 -39.7604 95.9817
lradius 65.2047
lwrist 8.7102
lhand -16.1499 -6.36486
lfingers 7.12502
lthumb 10.0555 23.3749
rfemur -20.5522 5.14485 24.3939
rtibia 75.6858
rfoot -10.357 -10.7348
rtoes -13.0315
lfemur -10.715 -1.08161 -14.0134
ltibia 42.7892
lfoot -15.4696 -3.72191
ltoes -11.5479
128
root -6.45421 17.0865 2.26326 535.212 39.912 -173.323
lowerback 28.0283 -0.0833556 -5.34692
upperback 16.8153 2.16986 1.02995
thorax 3.4469 2.01512 3.73409
lowerneck -13.5385 -13.6188 -22.783
upperneck -9.82416 -14.3132 38.4292
head 5.1916 -5.57419 15.7442
rclavicle -6.79844e-014 4.37326e-014
rhumerus -26.1755 9.23665 -88.8821
rradius 45.8166
rwrist 4.68643
rhand -17.3885 5.65895
rfingers 7.12502
rthumb 8.86042 -24.135
lclavicle -6.79844e-014 4.37326e-014
lhumerus -18.9326 -39.5718 95.9012
lradius 65.1091
lwrist 8.72296
lhand -16.22 -6.46052
lfingers 7.12502
lthumb 9.98787 23.2825
rfemur -21.2205 5.16984 24.3896
rtibia 75.3211
rfoot -10.964 -10.8049
rtoes -13.2054
lfemur -10.1551 -0.861625 -14.1679
ltibia 42.736
lfoot -15.7943 -3.62888
ltoes -11.3152
